<svg width="135" height="136" viewBox="0 0 135 136" fill="none" xmlns="http://www.w3.org/2000/svg">
<path d="M52.1042 95.7015H58.9781L103.126 51.5539L96.2518 44.6801L55.5895 85.4392L37.0011 66.8507L30.1272 73.7245L52.1042 95.7015Z" fill="white"/>
<path fill-rule="evenodd" clip-rule="evenodd" d="M74.6621 0.145222C90.1525 1.11337 104.675 8.85857 115.324 19.5082C127.91 33.0623 134.687 49.5209 134.687 68.8839C134.687 84.3742 128.878 98.8965 119.197 111.482C109.516 123.1 95.9614 131.814 80.471 134.718C64.9806 137.622 49.4902 135.686 35.9361 127.941C22.382 120.196 11.7324 108.578 5.92348 94.0557C0.114583 79.5335 -0.853567 63.0749 3.98718 48.5527C8.82793 33.0623 17.5413 20.4764 31.0954 11.763C43.6813 3.04967 59.1717 -0.822927 74.6621 0.145222ZM79.5029 125.037C92.0888 122.132 103.707 115.355 112.42 104.705C120.165 94.0557 125.006 81.4698 124.038 67.9157C124.038 52.4253 118.229 36.9349 107.579 26.2853C97.8977 16.6038 86.2799 10.7949 72.7258 9.82672C60.1399 8.85857 46.5858 11.763 35.9361 19.5082C25.2865 27.2534 17.5413 37.9031 13.6687 51.4572C9.79608 64.0431 9.79608 77.5972 15.605 90.1831C21.4139 102.769 30.1272 112.451 41.745 119.228C53.3628 126.005 66.9169 127.941 79.5029 125.037Z" fill="white"/>
</svg>
