<svg width="119" height="105" viewBox="0 0 119 105" fill="none" xmlns="http://www.w3.org/2000/svg">
<path fill-rule="evenodd" clip-rule="evenodd" d="M50.4977 0.269024C48.0378 0.589247 43.488 2.0115 40.8378 3.28896C34.0556 6.55757 27.8668 12.6387 24.546 19.2975C18.0548 32.3124 19.9896 47.9518 29.4535 58.9687C34.426 64.7568 41.7297 68.9652 49.5124 70.5262C53.0528 71.2365 59.147 71.2413 62.7377 70.5371C72.7269 68.5777 81.1132 62.715 86.5404 53.8975C91.5381 45.7775 92.9266 34.1056 89.992 24.8829C89.0168 21.8186 87.1943 17.9376 85.8114 15.9802C85.3109 15.272 84.5995 14.2335 84.2306 13.6726C82.7349 11.399 79.3049 8.2454 75.252 5.41805C72.0247 3.16677 65.6851 0.773253 61.5762 0.255002C58.8355 -0.0909755 53.2081 -0.0835351 50.4977 0.269024ZM53.6364 0.697991C53.6364 0.791854 53.1276 1.45033 52.5056 2.16117C51.1854 3.67042 49.6561 6.77592 48.7747 9.73834C48.4322 10.889 48.1194 11.8711 48.0793 11.9207C47.9447 12.0866 42.922 10.6114 41.5648 10.0073L40.2223 9.40981L40.7923 8.61713C42.1908 6.67261 45.7715 3.67529 48.2533 2.3715C49.1387 1.90648 52.9086 0.570931 53.4231 0.540025C53.5403 0.532871 53.6364 0.603841 53.6364 0.697991ZM55.9118 2.06817C55.9118 3.40944 55.8165 3.67185 55.1768 4.09366C54.773 4.36009 54.261 5.01455 54.0392 5.54826C53.1689 7.64444 53.8 10.9774 55.1026 11.1637C55.8333 11.2685 56.2195 12.26 55.5298 12.26C55.2966 12.26 55.0634 12.3825 55.011 12.5322C54.9189 12.7975 49.2695 12.408 48.7786 12.1029C48.4459 11.8958 50.4925 6.38759 51.7115 4.20899C52.8657 2.14686 54.4675 0.527148 55.3529 0.527148C55.8392 0.527148 55.9118 0.726894 55.9118 2.06817ZM58.238 1.03653C59.9991 2.20495 61.7488 5.24492 63.2013 9.65821C63.585 10.8243 63.7977 11.878 63.674 11.9996C63.3472 12.321 58.0625 12.7814 57.9502 12.4987C57.8978 12.3674 57.5366 12.26 57.147 12.26C56.0133 12.26 56.3941 11.2811 57.5722 11.1672C58.3401 11.0928 58.5927 10.8936 58.9209 10.1032C59.8734 7.80927 59.1245 4.76215 57.4112 3.96117C56.5486 3.55796 56.4925 3.44063 56.4869 2.02953C56.4797 0.333985 56.8569 0.120217 58.238 1.03653ZM62.9411 1.66181C64.0696 2.10136 65.6985 2.93239 66.5611 3.50845C68.2736 4.65226 72.4078 8.55818 72.4078 9.03236C72.4078 9.1949 71.8 9.58981 71.0568 9.91004C69.7474 10.4744 64.6646 12.0391 64.5932 11.8998C64.5739 11.8617 64.1461 10.6718 63.6427 9.25528C62.3529 5.62466 61.087 3.16304 59.7579 1.70044L58.6137 0.441298L59.7514 0.651632C60.3771 0.76753 61.8125 1.22197 62.9411 1.66181ZM49.7826 1.04683C49.6342 1.17532 48.9365 1.52502 48.2326 1.82406C46.3352 2.62991 44.0924 4.3578 41.658 6.88867L39.4922 9.14081L37.9015 8.05338C37.0264 7.45528 36.3463 6.8426 36.3898 6.6915C36.5081 6.28114 40.1083 4.22044 42.6171 3.12699C43.8304 2.59815 45.9422 1.86727 47.3099 1.50298C50.209 0.7309 50.1316 0.745209 49.7826 1.04683ZM70.087 3.2363C72.4732 4.25306 76.1519 6.51522 75.9511 6.84231C75.8635 6.98482 75.2121 7.50279 74.504 7.99328L73.2161 8.8847L71.0435 6.67748C68.7784 4.37611 66.4323 2.60931 64.6416 1.8564C64.0637 1.61373 63.591 1.35332 63.591 1.27834C63.591 1.04282 68.1988 2.43189 70.087 3.2363ZM37.0167 8.11061C37.6851 8.66148 38.3625 9.1122 38.5224 9.1122C39.2001 9.1122 39.1185 9.78555 38.2877 11.0473C37.513 12.2243 37.2917 12.3831 36.5372 12.3033C34.8477 12.125 34.0656 13.7267 35.0352 15.3784C35.4621 16.1056 35.4487 16.2501 34.817 17.7576L34.1444 19.3627L32.4265 18.6015C30.3335 17.6741 27.4703 15.9385 27.4703 15.5971C27.4703 15.355 27.7829 14.9432 29.9823 12.289C31.0428 11.0089 35.2872 7.10902 35.6196 7.10902C35.72 7.10902 36.3486 7.55973 37.0167 8.11061ZM78.2434 8.27859C79.0227 8.9219 80.0793 9.85538 80.591 10.3533C81.8009 11.53 84.9221 15.3713 84.9221 15.6838C84.9221 16.1791 79.1063 19.2594 78.676 18.9919C78.56 18.9198 78.2375 18.2616 77.9596 17.5293C77.4886 16.2887 77.4858 16.1316 77.9175 15.221C78.5261 13.9367 78.5017 13.3177 77.8182 12.695C77.407 12.321 76.986 12.2271 76.254 12.3468C75.7028 12.4366 75.252 12.4117 75.252 12.2912C75.252 12.1705 74.8407 11.4473 74.3381 10.6838C73.7303 9.76065 73.5406 9.257 73.7719 9.17945C73.9627 9.11535 74.6422 8.62314 75.2813 8.086C75.9203 7.54857 76.5296 7.10902 76.6351 7.10902C76.7403 7.10902 77.4641 7.63528 78.2434 8.27859ZM74.1143 11.2616C74.7648 12.2769 75.0768 13.0759 75.0148 13.567C74.9533 14.0523 75.1484 14.5631 75.5657 15.0098C76.0506 15.5292 76.1302 15.7834 75.8859 16.0292C75.6416 16.275 75.4559 16.2693 75.1408 16.0063C74.8043 15.725 74.5651 15.7587 73.9326 16.1757C73.3575 16.5549 72.5969 16.6957 71.1257 16.6957C69.3876 16.6957 68.8387 16.5586 67.1737 15.7081C65.2824 14.7423 64.7286 14.0941 64.7286 12.8455C64.7286 12.4698 65.025 12.2678 65.7884 12.1238C67.4311 11.8136 71.3489 10.5187 71.9735 10.0792C72.8341 9.47363 73.0429 9.58895 74.1143 11.2616ZM40.6785 10.2288C40.8483 10.5056 44.05 11.5526 46.3839 12.0952C47.7832 12.4203 47.8045 12.4415 47.7084 13.4159C47.5818 14.7022 47.3529 14.952 45.4302 15.9021C43.4228 16.894 40.3193 17.0265 39.0286 16.1757C38.3961 15.7587 38.1569 15.725 37.8204 16.0063C37.5053 16.2693 37.3196 16.275 37.0753 16.0292C36.831 15.7834 36.9066 15.5335 37.3796 15.027C37.7809 14.5972 37.9868 14.0506 37.9473 13.5209C37.889 12.7405 38.4097 11.6248 39.3708 10.4715C39.8233 9.92864 40.4254 9.81703 40.6785 10.2288ZM64.265 13.1901C64.5836 14.3866 64.5008 14.5019 63.4889 14.2724C62.9635 14.1531 61.9075 14.1591 61.1424 14.2856C60.3774 14.4118 59.5915 14.5231 59.3958 14.5322C59.1504 14.5442 59.0403 15.1129 59.0403 16.3671V18.1852L60.7033 17.5988C62.0764 17.1149 62.6089 17.06 63.7568 17.2834L65.147 17.5542L65.5327 19.9368C65.7445 21.2472 65.8714 22.3664 65.8142 22.4236C65.6251 22.6139 60.9297 23.1344 59.4032 23.1344H57.9027V19.005C57.9027 14.9403 57.8927 14.8739 57.2627 14.7841C56.4701 14.6707 56.4166 13.8812 57.1916 13.7332C57.5045 13.6734 57.8245 13.5278 57.9027 13.4096C57.9809 13.2914 59.3247 13.0679 60.889 12.9131C62.4533 12.7586 63.8142 12.6126 63.9132 12.5891C64.0125 12.5654 64.1706 12.8361 64.265 13.1901ZM55.4627 13.7456C56.0201 14.2715 56.0255 14.3245 55.5562 14.6724C55.1231 14.9938 55.0585 15.5659 55.0585 19.088V23.1344L53.1387 23.1256C51.1783 23.1167 47.1069 22.6697 46.8768 22.4382C46.5989 22.1583 47.1797 18.2252 47.5548 17.8478C48.3082 17.0897 50.4925 16.9801 52.2855 17.6103L53.9209 18.1852V16.3849V14.5846L52.5699 14.3783C50.8702 14.119 49.9937 14.1156 49.0096 14.364C48.3281 14.5362 48.2326 14.4776 48.2326 13.8872C48.2326 13.5169 48.3287 13.1166 48.4459 12.9975C48.5631 12.8785 50.0571 12.8724 51.7653 12.9843C54.2704 13.1483 54.986 13.2954 55.4627 13.7456ZM28.0815 16.811C28.4601 17.1106 29.9365 17.96 31.3628 18.6991L33.9558 20.0424L33.3992 21.9463C32.7055 24.3186 31.7365 29.7006 31.7365 31.1818C31.7365 32.2755 31.3415 32.6118 30.7269 32.0409C30.5784 31.9029 29.6421 31.5117 28.6464 31.1715C27.6506 30.8312 26.3329 30.2947 25.718 29.979C24.2305 29.2155 22.3508 27.4808 22.3508 26.8715C22.3508 25.0446 26.3241 16.2664 27.1512 16.2664C27.2846 16.2664 27.7032 16.5114 28.0815 16.811ZM87.3871 19.9774C88.3518 21.9211 89.3404 24.2957 89.5839 25.2544C89.9989 26.8873 89.9946 27.0421 89.5165 27.6988C88.6743 28.8552 86.5961 30.1198 83.9351 31.0954C82.554 31.6013 81.3919 31.9811 81.3527 31.939C81.3134 31.8969 81.0645 30.3173 80.8 28.4286C80.5352 26.5399 79.9988 23.8582 79.6078 22.4694C79.2167 21.0806 78.9405 19.9025 78.994 19.8515C79.0478 19.8003 80.1154 19.2328 81.3669 18.5901C82.6183 17.9474 83.9622 17.1647 84.3532 16.8508C84.7443 16.5368 85.1923 16.3168 85.3487 16.3617C85.5051 16.4069 86.4223 18.0338 87.3871 19.9774ZM35.5901 18.3262C35.3964 18.987 35.0886 19.5777 34.9069 19.6386C34.565 19.7534 34.8039 18.8814 35.4442 17.6781C35.9154 16.7924 35.9695 17.0333 35.5901 18.3262ZM37.3679 17.7545C37.5556 17.9434 37.7092 18.6654 37.7092 19.359C37.7092 20.3915 37.6276 20.5887 37.2593 20.4465C37.0118 20.3509 36.6177 20.2728 36.3836 20.2728C36.0545 20.2728 35.9999 20.0613 36.1435 19.3427C36.5559 17.282 36.7055 17.088 37.3679 17.7545ZM76.55 18.198C76.6445 18.631 76.7793 19.1679 76.8495 19.3914C76.9954 19.8541 76.484 20.2619 75.7497 20.2685C75.3623 20.2719 75.252 20.0318 75.252 19.1853C75.252 17.5095 76.2372 16.7603 76.55 18.198ZM78.0862 19.4C78.1024 20.0753 77.6194 19.3599 77.4195 18.4127L77.2383 17.5542L77.657 18.2696C77.8873 18.6631 78.0805 19.1719 78.0862 19.4ZM46.4777 20.3741C46.2047 22.1417 46.052 22.5418 45.6925 22.4342C45.447 22.3609 44.3816 22.1532 43.325 21.9726C42.2684 21.792 41.352 21.5602 41.2889 21.4572C41.2254 21.3542 41.0841 20.7882 40.974 20.1989L40.7744 19.1281L41.8728 19.1269C42.4766 19.1264 43.8028 18.886 44.8196 18.5927C45.8364 18.2993 46.7016 18.0864 46.7425 18.1199C46.7832 18.1531 46.6643 19.1676 46.4777 20.3741ZM67.9994 18.5558C69.0932 18.8705 70.4832 19.1281 71.0876 19.1281H72.1868L71.9874 20.2012C71.8779 20.7916 71.7377 21.3261 71.6757 21.3894C71.6137 21.4526 70.407 21.7228 68.9937 21.9901C66.426 22.4754 66.4243 22.4754 66.3054 21.875C66.135 21.0142 65.8472 17.9834 65.9357 17.9834C65.9769 17.9834 66.9055 18.241 67.9994 18.5558ZM39.1202 18.5497C39.6117 18.8144 40.269 20.2187 40.269 21.0042C40.269 21.2829 40.0454 21.2947 39.2735 21.0566C38.3361 20.767 38.2781 20.6768 38.2781 19.5093C38.2781 18.1774 38.3264 18.1222 39.1202 18.5497ZM74.6282 19.4635C74.5537 20.4837 74.4246 20.6963 73.7411 20.9241C73.3012 21.0709 72.8723 21.1218 72.7884 21.0371C72.5196 20.7667 73.2864 18.8565 73.7801 18.5666C74.5896 18.0916 74.719 18.2284 74.6282 19.4635ZM79.3205 23.4206C80.0916 26.5713 80.564 29.3984 80.2736 29.1282C80.0105 28.8833 77.8942 20.2851 78.0569 20.1214C78.3495 19.8272 78.6026 20.4882 79.3205 23.4206ZM33.9521 24.6211C33.3503 27.0126 32.7812 29.041 32.6873 29.1282C32.5935 29.2155 32.5753 28.6432 32.6469 27.8562C32.8315 25.8284 34.3605 20.2728 34.734 20.2728C34.9262 20.2728 34.6262 21.942 33.9521 24.6211ZM36.8702 20.9956L37.7092 21.432V27.4344C37.7092 32.6693 37.6529 33.4365 37.2675 33.4365C36.4689 33.4365 32.8742 32.5365 32.8742 32.3365C32.8742 32.2289 33.4669 29.8248 34.1913 26.9937C34.9154 24.1629 35.5704 21.5571 35.6464 21.2028C35.8105 20.4382 35.8019 20.4396 36.8702 20.9956ZM77.3148 21.2028C77.3908 21.5571 78.0446 24.1592 78.7679 26.9854C79.4912 29.8119 79.9878 32.2106 79.8717 32.3159C79.566 32.5932 75.7215 33.4087 75.4667 33.2502C75.3487 33.1767 75.252 30.4157 75.252 27.1148C75.252 21.1579 75.2568 21.111 75.8919 20.854C76.899 20.4468 77.1666 20.5123 77.3148 21.2028ZM40.5033 22.1303C40.6706 22.2985 42.5576 29.5114 43.2181 32.5065L43.6125 34.295H42.389C41.7161 34.295 40.5158 34.1442 39.7218 33.9596L38.2781 33.6245V27.7117C38.2781 24.4597 38.3517 21.7248 38.4416 21.6344C38.6114 21.4635 40.2272 21.8521 40.5033 22.1303ZM74.6831 27.5048V33.5922L72.8418 33.9436C71.8293 34.1368 70.6109 34.295 70.1345 34.295C69.1493 34.295 69.1319 34.6782 70.3214 30.1456C70.6931 28.729 71.2576 26.4755 71.5759 25.1376C72.3959 21.6922 72.3706 21.7523 73.0611 21.6178C74.8023 21.2778 74.6831 20.8454 74.6831 27.5048ZM71.4431 22.6337C70.9892 24.2765 68.426 34.3282 68.426 34.4659C68.426 34.5511 68.1382 34.5798 67.7861 34.5297C67.1692 34.4412 67.1396 34.299 66.9633 30.5748C66.8629 28.45 66.7349 25.8782 66.6788 24.86L66.5773 23.0085L67.8572 22.7919C68.5611 22.6726 69.585 22.4565 70.1325 22.3117C71.5992 21.9237 71.6368 21.9328 71.4431 22.6337ZM43.6489 22.5492C44.2146 22.6995 45.0053 22.8889 45.4061 22.9702C46.1268 23.1167 46.1325 23.1393 45.9339 25.0581C45.8239 26.1249 45.6416 28.7041 45.5292 30.7895C45.3705 33.735 45.2368 34.5812 44.93 34.5812C44.7129 34.5812 44.5352 34.5202 44.5352 34.4458C44.5352 34.2129 41.7053 23.2186 41.521 22.735C41.3136 22.1918 42.0585 22.1266 43.6489 22.5492ZM51.5744 23.6029L55.0585 23.7941V29.4877V35.1813L51.4322 35.0101C46.7633 34.7898 45.9573 34.6599 45.9573 34.1279C45.9573 32.7823 46.5682 23.7863 46.6817 23.4598C46.7684 23.2109 47.0477 23.1316 47.4538 23.2409C47.804 23.3351 49.6581 23.4979 51.5744 23.6029ZM66.1885 25.1376C66.2875 26.1607 66.3836 28.6961 66.4018 30.772L66.4351 34.546L65.2263 34.6934C64.5617 34.7743 62.6419 34.9097 60.9601 34.9944L57.9027 35.1481V29.4273V23.7068L59.6803 23.6756C60.6581 23.6587 62.2258 23.5465 63.1643 23.4266C66.0457 23.0589 65.984 23.024 66.1885 25.1376ZM26.2382 30.8201C27.203 31.3063 28.7709 31.9218 29.7223 32.188C31.7414 32.7528 31.7547 32.7981 30.9601 36.3569L30.4678 38.5615L29.2579 38.6462L28.048 38.7306L28.7226 40.1915C29.2254 41.2812 29.7579 41.8879 30.817 42.5784C32.0625 43.3906 32.2567 43.6504 32.3952 44.6892C32.4823 45.3408 32.5238 45.9037 32.4877 45.9401C32.4515 45.9764 31.3398 45.704 30.0172 45.3348C26.8767 44.4586 23.3969 42.7473 22.3759 41.5774C21.6409 40.7352 21.5437 40.3747 21.3634 37.828C21.1842 35.2966 21.4945 30.5399 21.9603 28.6718C22.1256 28.0099 22.1259 28.0099 23.3048 28.9729C23.9532 29.5026 25.2735 30.3336 26.2382 30.8201ZM90.9036 32.0575C91.0916 33.7584 91.1476 36.1314 91.0358 37.6543C90.7838 41.0955 90.3421 41.7769 87.3362 43.3643C85.2292 44.4766 80.7761 45.9581 80.469 45.649C80.1271 45.3053 80.7702 43.4115 81.3288 43.1159C83.0162 42.2236 84.597 40.2922 84.6257 39.0883C84.6351 38.6986 84.401 38.587 83.5711 38.5852L82.5045 38.5827L81.8538 35.7951C81.4957 34.2618 81.2079 32.9157 81.2139 32.8038C81.2198 32.6916 81.7688 32.457 82.4334 32.2818C84.1701 31.8248 88.0233 29.8992 89.1883 28.9059C90.4172 27.8582 90.4457 27.9106 90.9036 32.0575ZM80.4781 33.7584C80.5759 34.2504 80.6558 35.5381 80.6558 36.6201V38.5875H77.9539H75.252V36.3528V34.1184L77.5984 33.5221C78.8891 33.1941 80.0247 32.9117 80.1226 32.8948C80.2204 32.8779 80.3802 33.2665 80.4781 33.7584ZM35.2917 33.6777L37.567 34.1871L37.6501 36.3872L37.7331 38.5875H35.0497C32.0909 38.5875 32.0209 38.5438 32.0209 36.6877C32.0209 35.5344 32.5733 33.146 32.8369 33.1592C32.9356 33.1641 34.0403 33.3973 35.2917 33.6777ZM42.8025 34.8367C43.792 35.029 44.0739 35.484 44.6387 37.8006L44.8304 38.5875H41.5542H38.2781V36.6321C38.2781 35.5564 38.3531 34.6012 38.4447 34.5091C38.6219 34.3305 41.1922 34.5237 42.8025 34.8367ZM74.6831 36.4413V38.5875H71.3819C68.86 38.5875 68.112 38.5031 68.213 38.2298C68.2855 38.0332 68.5142 37.2005 68.7212 36.3795C69.0867 34.9292 69.1299 34.8828 70.2548 34.7363C72.3273 34.4664 73.1058 34.3814 73.901 34.3379L74.6831 34.295V36.4413ZM45.3884 36.346C45.3884 37.7516 45.2536 37.7116 44.9865 36.2267C44.8645 35.5473 44.9029 35.1535 45.0912 35.1535C45.2548 35.1535 45.3884 35.6901 45.3884 36.346ZM51.4322 35.6011L55.0585 35.7834V42.1781V48.5725L52.4277 48.416C50.9806 48.3296 49.0929 48.1753 48.2326 48.0732L46.6683 47.8871L46.4348 44.9556C46.2255 42.3286 46.2565 41.942 46.7331 41.2357C47.2294 40.5003 47.9482 39.0102 47.9482 38.7172C47.9482 38.6459 47.5002 38.5875 46.9527 38.5875H45.9573V36.8576V35.1275L46.8816 35.2731C47.3899 35.3533 49.4379 35.5006 51.4322 35.6011ZM66.4351 36.8705C66.4351 38.5231 66.4078 38.5875 65.705 38.5875C65.0799 38.5875 65.0025 38.6803 65.1686 39.2314C65.275 39.5857 65.6168 40.2983 65.928 40.8154C66.4288 41.6475 66.4718 42.0585 66.302 44.3925C66.0233 48.2202 66.2494 47.9438 63.2255 48.1541C61.7841 48.2546 59.9968 48.4088 59.2536 48.497L57.9027 48.6572V42.219V35.7808L60.9601 35.5971C63.7531 35.4294 65.1174 35.3232 66.0796 35.1993C66.3296 35.1673 66.4351 35.6632 66.4351 36.8705ZM67.9724 36.2267C67.7423 37.4938 67.3629 38.5875 67.1533 38.5875C67.0711 38.5875 67.0039 37.8149 67.0039 36.8705C67.0039 35.3315 67.0642 35.1535 67.5856 35.1535C68.1029 35.1535 68.1459 35.2726 67.9724 36.2267ZM81.612 38.1583C81.7019 38.3944 81.6516 38.5875 81.5003 38.5875C81.3487 38.5875 81.2247 38.3944 81.2247 38.1583C81.2247 37.9222 81.275 37.729 81.3364 37.729C81.3979 37.729 81.5219 37.9222 81.612 38.1583ZM31.5943 38.3014C31.691 38.4588 31.6344 38.5875 31.4689 38.5875C31.3034 38.5875 31.1677 38.4588 31.1677 38.3014C31.1677 38.144 31.224 38.0152 31.2931 38.0152C31.3622 38.0152 31.4976 38.144 31.5943 38.3014ZM28.7197 45.4994L32.6714 46.8312L33.7328 50.0858C34.3167 51.8758 35.255 54.2953 35.8179 55.4626C36.3807 56.6299 36.8011 57.6252 36.7522 57.6744C36.6441 57.7834 31.8207 56.9595 31.0255 56.6963C30.7126 56.5927 30.3287 56.4828 30.1722 56.4522C27.8139 55.9886 27.5411 55.7865 26.2377 53.5355C24.059 49.773 22.0664 44.7384 22.0664 42.9962C22.0664 42.33 22.0724 42.3312 23.4174 43.2475C24.1611 43.754 26.5445 44.7665 28.7197 45.4994ZM67.8347 42.7155C68.0819 42.9399 69.2662 43.455 70.467 43.8602C72.9971 44.7141 75.9184 44.836 78.3893 44.1913C79.2443 43.9681 79.9843 43.8261 80.0338 43.8759C80.0833 43.9257 80.0372 44.4291 79.932 44.9951C79.7676 45.8765 79.5919 46.0637 78.7048 46.3023C77.8071 46.5439 71.9735 47.3781 67.7747 47.8651L66.4121 48.0234L66.583 45.8093C66.8626 42.1864 66.9672 41.9277 67.8347 42.7155ZM89.7804 44.9402C88.9986 47.7395 87.8174 50.4979 86.1783 53.3521L84.8225 55.7124L83.0947 56.1809C79.7557 57.0857 79.0788 57.2426 77.5984 57.4529C76.7773 57.5697 76.1052 57.6458 76.1052 57.622C76.1052 57.5986 76.7241 56.1712 77.4806 54.4507C78.2372 52.73 79.0873 50.4206 79.3697 49.3188C79.9855 46.9185 80.2673 46.3141 80.7719 46.3141C81.7443 46.3141 87.3748 44.213 88.7002 43.3554C89.5162 42.8274 90.2241 42.498 90.2736 42.6234C90.3234 42.7487 90.1012 43.7912 89.7804 44.9402ZM45.6905 43.2378C45.7001 43.592 45.8011 44.8151 45.9149 45.9564C46.0284 47.0976 46.0525 48.0299 45.9683 48.0285C45.3236 48.0182 38.4612 47.1202 36.2872 46.7616C34.8011 46.5167 33.5047 46.3158 33.4066 46.3152C33.2166 46.3141 32.5582 43.9612 32.7061 43.8124C32.7539 43.764 33.5423 43.9209 34.4578 44.1609C37.5403 44.9688 41.4655 44.5816 44.1731 43.2029C45.5887 42.482 45.6697 42.4837 45.6905 43.2378ZM78.9977 48.7814C78.3401 51.1678 76.2741 56.2238 75.5861 57.1301C74.9536 57.9637 72.7138 58.3194 68.0497 58.3274C64.9985 58.3326 64.6956 58.2868 64.7824 57.8324C64.8649 57.3991 65.2855 57.3207 67.9027 57.2506C70.8657 57.1713 70.9246 57.1567 70.7744 56.5352C70.4485 55.1859 69.8981 54.8991 67.6339 54.8991H65.5079L65.7121 53.5398C65.8245 52.7921 66.0011 51.4079 66.1046 50.4635L66.2929 48.7465L68.2838 48.5001C70.3902 48.2397 76.3245 47.3057 78.2383 46.9333C78.864 46.8117 79.4129 46.735 79.4582 46.7628C79.5034 46.7906 79.2963 47.6988 78.9977 48.7814ZM38.4203 47.6894C40.2974 47.9967 42.8119 48.3379 44.0079 48.4475L46.1825 48.6466L46.5201 50.9861C46.7058 52.2727 46.9271 53.6795 47.0119 54.1122L47.166 54.8991H45.1836C43.0702 54.8991 42.5076 55.2076 42.1845 56.5446C42.0309 57.1793 42.069 57.1885 44.8159 57.1885C47.0614 57.1885 47.6356 57.274 47.7707 57.6286C47.868 57.8833 47.7533 58.1403 47.4982 58.2387C46.9459 58.4519 38.5753 58.1818 37.984 57.9317C37.2388 57.6163 34.7021 52.0709 34.044 49.3188C33.8557 48.5319 33.6296 47.6459 33.5414 47.3503C33.4043 46.8896 33.4979 46.8352 34.1944 46.9714C34.6415 47.059 36.5431 47.3821 38.4203 47.6894ZM52.0011 48.8864L55.0585 48.8896V49.8606C55.0585 50.4598 55.2218 50.8945 55.4851 50.9964C55.7198 51.0868 55.9118 51.3581 55.9118 51.5993C55.9118 51.9673 55.3884 52.0374 52.641 52.0374H49.3702V52.8865V53.7356L52.5699 53.8166C55.1888 53.8829 55.7696 53.9754 55.7696 54.3268C55.7696 54.6842 55.102 54.7692 51.7829 54.835L47.7966 54.914L47.4521 53.4042C47.2627 52.5737 47.021 51.1337 46.9149 50.2043L46.7218 48.5141L47.8327 48.6987C48.4436 48.8003 50.3196 48.8847 52.0011 48.8864ZM65.6353 50.0343C65.5867 50.7425 65.3947 52.0947 65.2087 53.039L64.8708 54.756H60.7468C57.2707 54.756 56.6228 54.6885 56.6228 54.3268C56.6228 53.9731 57.2351 53.8835 60.1069 53.8171L63.591 53.7367V52.8871V52.0374H60.015C56.7627 52.0374 56.4476 51.9922 56.5338 51.5367C56.5858 51.2611 56.9152 50.9946 57.2656 50.9443C57.7826 50.8702 57.9027 50.6696 57.9027 49.8806V48.9085L61.1023 48.8112C66.1678 48.6578 65.7383 48.5419 65.6353 50.0343ZM30.2735 57.0222C31.1563 57.2457 32.6467 57.5943 33.5852 57.7966L35.2917 58.1646L34.1541 58.3203C33.2064 58.4502 32.9333 58.6436 32.5192 59.4778L32.0218 60.4794L35.4439 60.5598L38.8659 60.6402L39.4134 61.546C40.8119 63.8596 45.0224 67.5083 48.1731 69.1369C49.8751 70.0165 49.9652 70.103 49.0073 69.937C45.7289 69.3695 40.0326 66.8976 36.4294 64.4792C33.7843 62.7041 27.627 56.6161 28.4766 56.6161C28.5818 56.6161 29.3904 56.799 30.2735 57.0222ZM82.6237 58.3332C81.8072 59.2775 81.0626 60.0493 80.9687 60.0484C80.8748 60.0473 80.5799 59.661 80.3137 59.1899C79.8825 58.4279 79.6783 58.3323 78.465 58.3246C76.7119 58.3134 77.3239 57.94 79.8026 57.5087C80.8194 57.3318 82.0352 57.0697 82.5045 56.9264C84.0956 56.4399 84.1101 56.6136 82.6237 58.3332ZM55.7696 57.7608C55.7696 58.1151 55.1518 58.2041 52.2368 58.2708C49.6677 58.3294 48.645 58.2553 48.4871 57.9983C48.0523 57.2903 48.6285 57.1733 52.1652 57.2517C55.1441 57.3178 55.7696 57.406 55.7696 57.7608ZM64.2349 57.3596C64.3284 57.4538 64.3361 57.7113 64.2519 57.9319C64.1316 58.2473 63.3179 58.3332 60.4487 58.3332C56.965 58.3332 56.2007 58.1617 56.6228 57.4746C56.8099 57.1699 63.9394 57.062 64.2349 57.3596ZM49.1188 62.286C49.9601 64.7779 51.5343 67.8385 52.6424 69.136C53.8554 70.5568 53.6268 70.6441 51.0127 69.7581C48.2869 68.8341 45.6265 67.2172 43.1922 65.0049C41.8958 63.8267 39.7001 61.2049 39.7001 60.8351C39.7001 60.7101 41.7038 60.6434 44.1529 60.6869L48.6054 60.7656L49.1188 62.286ZM55.8475 65.5589C55.9231 70.2043 55.9078 70.3522 55.3506 70.3522C54.5324 70.3522 52.6515 68.5448 51.6717 66.8169C50.7838 65.2507 49.3702 61.6833 49.3702 61.0083C49.3702 60.6789 49.9644 60.6188 52.5699 60.6846L55.7696 60.7656L55.8475 65.5589ZM63.3065 60.8637C63.3065 60.9965 63.0682 61.8021 62.777 62.6537C61.3956 66.6936 58.7656 70.3522 57.2428 70.3522H56.4806V65.6782C56.4806 63.1073 56.5659 60.9181 56.6703 60.8134C56.9496 60.5321 63.3065 60.5807 63.3065 60.8637ZM73.2611 60.8551C73.2611 61.3574 69.1208 65.5718 67.4709 66.7491C64.4718 68.8888 59.7508 70.8762 59.1359 70.2578C59.0264 70.1476 59.3304 69.6408 59.8114 69.1317C60.9214 67.9561 62.2178 65.6158 63.1706 63.0667C63.5802 61.9715 63.9778 60.9736 64.0543 60.8489C64.2386 60.5489 73.2611 60.555 73.2611 60.8551ZM79.1993 61.8404C75.4109 65.342 69.0804 68.6784 64.4391 69.6199C63.5819 69.7939 63.6726 69.6992 65.116 68.9157C68.0608 67.3163 70.9485 64.7968 73.2258 61.8387L74.1621 60.6225L77.3379 60.6242L80.5136 60.6256L79.1993 61.8404ZM2.58403 81.0583C-0.586337 82.476 -0.916827 87.1297 2.02288 88.958C2.8693 89.4843 3.34797 89.5704 4.87755 89.4726C5.98165 89.4019 6.87016 89.189 7.10338 88.9394C7.55531 88.4561 7.93558 85.233 7.54081 85.233C7.39547 85.233 7.27687 85.8694 7.27687 86.6475C7.27687 88.2323 6.76891 88.8084 5.09172 89.1249C3.98392 89.3341 1.85394 88.4017 1.2214 87.4305C-1.06074 83.926 3.08233 79.6152 6.63694 81.7958C7.41339 82.272 7.56129 82.2926 7.56129 81.9232C7.56129 80.8766 4.26947 80.3046 2.58403 81.0583ZM10.6898 85.073V89.5255H13.534C15.2405 89.5255 16.3781 89.411 16.3781 89.2393C16.3781 89.0696 15.3352 88.9532 13.8184 88.9532H11.2587V84.9637C11.2587 82.6128 11.1418 80.9015 10.9743 80.7974C10.7894 80.6823 10.6898 82.1776 10.6898 85.073ZM19.3645 81.1139C16.3875 82.7164 16.1355 87.0118 18.9089 88.8759C20.2621 89.7853 22.7391 89.7833 24.0863 88.8713C26.5278 87.2193 26.6424 83.2696 24.2999 81.5268C23.158 80.6775 20.5764 80.4614 19.3645 81.1139ZM28.3236 85.0558V89.5255H31.1293C33.5372 89.5255 34.0414 89.4414 34.6845 88.9323C35.9786 87.9084 35.4914 85.233 34.011 85.233C33.7581 85.233 33.8384 85.008 34.2468 84.5708C35.0605 83.6988 35.0775 82.0811 34.28 81.3551C33.8213 80.9373 33.1159 80.7968 31.0093 80.7041L28.3236 80.5859V85.0558ZM40.143 81.2904C39.8995 81.6401 39.7001 82.0262 39.7001 82.1481C39.7001 82.27 39.3011 83.2393 38.8133 84.3021C36.2715 89.8406 36.3904 89.5255 36.8426 89.5255C36.9917 89.5255 37.3708 88.9409 37.6848 88.2266L38.2559 86.9274L40.7374 87.0104L43.2189 87.0931L43.8059 88.2958C44.5264 89.7725 45.3298 90.0372 44.7149 88.5955C43.4851 85.7126 40.9956 80.6543 40.8065 80.6543C40.6851 80.6543 40.3864 80.9405 40.143 81.2904ZM46.8105 85.0899V89.5255H49.6546C51.3611 89.5255 52.4988 89.411 52.4988 89.2393C52.4988 89.0696 51.4558 88.9532 49.9391 88.9532H47.3793V84.8037C47.3793 82.2282 47.2715 80.6543 47.0949 80.6543C46.9174 80.6543 46.8105 82.3235 46.8105 85.0899ZM59.3307 80.9582C56.1305 82.3135 55.7485 87.2714 58.709 89.0247C59.7826 89.6603 62.186 89.68 63.4769 89.0636C64.4155 88.6155 64.4442 88.5517 64.4442 86.9174C64.4442 85.9853 64.3171 85.233 64.1598 85.233C64.0034 85.233 63.8754 85.8694 63.8754 86.6475C63.8754 87.7836 63.7514 88.1496 63.2451 88.5062C62.1148 89.3029 60.8808 89.3558 59.4687 88.6679C57.9954 87.9501 57.3048 86.8724 57.2829 85.2556C57.2602 83.6113 57.5608 82.9891 58.8227 82.0694C60.2172 81.0529 61.8549 80.9488 63.2252 81.7895C64.3233 82.4632 64.7827 82.0353 63.7161 81.3322C62.8319 80.7493 60.3279 80.5355 59.3307 80.9582ZM69.3185 81.7274C68.5449 83.261 65.8663 89.1947 65.8663 89.3744C65.8663 89.9104 66.4158 89.3306 66.9436 88.2377L67.5654 86.95H70.1006H72.6359L73.1618 88.2366C73.451 88.9443 73.8461 89.5238 74.0395 89.5244C74.3899 89.5255 74.3071 89.3037 72.2784 84.8037C70.7067 81.3179 70.3606 80.6543 70.1129 80.6543C69.9735 80.6543 69.616 81.1373 69.3185 81.7274ZM74.1143 80.9405C74.1143 81.0978 74.8182 81.2266 75.6786 81.2266H77.2429V85.3761C77.2429 90.8605 77.769 90.92 77.8751 85.4476L77.9539 81.3697L79.5893 81.2839C80.4889 81.2366 81.2247 81.0758 81.2247 80.9261C81.2247 80.769 79.7255 80.6543 77.6695 80.6543C75.4889 80.6543 74.1143 80.765 74.1143 80.9405ZM82.6467 85.0899V89.5255H85.7753C87.6715 89.5255 88.9039 89.4128 88.9039 89.2393C88.9039 89.0688 87.8137 88.9532 86.2019 88.9532H83.5V87.1045V85.2562L85.8464 85.1597L88.1928 85.0633L85.8464 85.0052L83.5 84.9468V83.0867V81.2266H86.0597C87.5765 81.2266 88.6194 81.1102 88.6194 80.9405C88.6194 80.7679 87.4343 80.6543 85.6331 80.6543H82.6467V85.0899ZM90.7628 82.7136C92.5518 88.2904 93.0393 89.5289 93.4164 89.4568C93.6337 89.415 94.3515 87.8076 95.0469 85.8053C95.7301 83.8379 96.3311 82.108 96.3823 81.9609C96.4337 81.8141 96.8982 82.9087 97.415 84.3934C97.9315 85.8783 98.5489 87.6405 98.787 88.3093C99.0253 88.9781 99.384 89.5255 99.5845 89.5255C99.8006 89.5255 100.496 87.8677 101.294 85.4476C102.034 83.2049 102.698 81.2089 102.77 81.012C102.842 80.8154 102.776 80.6543 102.624 80.6543C102.403 80.6543 101.355 83.4315 99.82 88.0866C99.6047 88.7397 99.3151 88.1247 97.9684 84.1513C97.2955 82.1664 96.6422 80.682 96.4667 80.7404C96.2961 80.7974 95.6141 82.4354 94.9508 84.3802C94.2878 86.3253 93.6451 88.0174 93.5228 88.1404C93.4002 88.2638 92.7235 86.6715 92.0188 84.6023C90.6766 80.6606 89.5708 78.9979 90.7628 82.7136ZM105.551 84.1516C104.645 86.084 103.727 88.0838 103.511 88.5955C102.902 90.0335 103.605 89.7238 104.323 88.2377L104.945 86.95H107.458H109.971L110.519 88.2377C110.821 88.946 111.201 89.5255 111.362 89.5255C111.524 89.5255 111.647 89.4291 111.635 89.3109C111.576 88.7277 107.77 80.8291 107.505 80.7401C107.336 80.6838 106.457 82.2188 105.551 84.1516ZM111.657 80.8824C111.657 81.008 112.425 82.365 113.364 83.8983C114.848 86.3227 115.07 86.871 115.07 88.1058C115.07 88.8865 115.198 89.5255 115.354 89.5255C115.511 89.5255 115.639 88.8493 115.64 88.0231C115.641 86.6922 115.835 86.1994 117.346 83.702C119.167 80.6926 119.185 80.6543 118.799 80.6543C118.66 80.6543 117.86 81.8095 117.021 83.2218C116.183 84.6337 115.428 85.7927 115.345 85.7973C115.261 85.8016 114.957 85.3869 114.668 84.8753C112.88 81.7077 111.657 80.0857 111.657 80.8824ZM24.1902 82.3621C26.4925 84.6074 25.3486 88.3708 22.1486 89.0779C20.9945 89.3332 18.8938 88.4438 18.2251 87.417C17.0585 85.6253 17.5098 83.1926 19.2428 81.93C20.0496 81.3422 20.4766 81.2369 21.72 81.3191C22.9626 81.4012 23.3895 81.5815 24.1902 82.3621ZM33.664 81.6722C34.4132 82.1999 34.5346 83.8193 33.8671 84.3768C33.6139 84.588 32.5332 84.7494 31.2362 84.7694L29.0346 84.8037L28.9498 83.0152L28.8654 81.2266H30.9487C32.3739 81.2266 33.2317 81.3674 33.664 81.6722ZM41.4299 82.8721C41.7442 83.6199 42.2519 84.7465 42.5579 85.3761L43.114 86.5207L40.9456 86.6049C39.753 86.6512 38.7195 86.6312 38.6492 86.5602C38.5107 86.4209 40.5431 81.5128 40.7394 81.5128C40.8045 81.5128 41.1154 82.1243 41.4299 82.8721ZM70.9732 83.3906C71.4482 84.4237 71.9155 85.5827 72.0111 85.9661C72.184 86.6598 72.1726 86.6638 70.021 86.6638C68.831 86.6638 67.8572 86.5805 67.8572 86.479C67.8572 86.2752 69.9545 81.532 70.0497 81.5202C70.0824 81.5162 70.498 82.3578 70.9732 83.3906ZM108.631 84.0771C109.2 85.3303 109.666 86.4249 109.666 86.5096C109.666 86.7497 105.449 86.691 105.315 86.4492C105.176 86.1982 107.166 81.8124 107.422 81.8044C107.518 81.8015 108.062 82.8243 108.631 84.0771ZM34.2928 85.9453C35.0096 86.598 35.0244 87.5472 34.331 88.4089C33.8509 89.0052 33.5554 89.0736 31.4157 89.0842L29.0346 89.0963L28.9473 87.5564C28.8116 85.1634 28.8381 85.1397 31.4535 85.2919C33.1117 85.3886 33.8742 85.5641 34.2928 85.9453ZM45.9573 100.686V104.979H48.8014C50.5079 104.979 51.6455 104.864 51.6455 104.692C51.6455 104.523 50.6026 104.406 49.0858 104.406H46.5261V100.4C46.5261 97.9197 46.4177 96.3935 46.2417 96.3935C46.0648 96.3935 45.9573 98.0153 45.9573 100.686ZM53.8651 100.608C52.8176 102.924 52.0281 104.886 52.1106 104.97C52.2764 105.136 52.6731 104.621 53.4098 103.283C53.8919 102.408 53.9075 102.403 56.3119 102.403H58.7292L59.2954 103.691C59.6069 104.399 60.0073 104.979 60.1857 104.979C60.5753 104.979 60.7246 105.376 58.48 100.44C57.2792 97.7998 56.4886 96.3941 56.2047 96.3953C55.9209 96.3964 55.1077 97.8602 53.8651 100.608ZM62.2468 100.697C63.248 103.671 63.8154 104.975 64.0838 104.918C64.457 104.839 65.2215 102.947 66.4872 98.9691C67.1692 96.8265 66.9974 96.6245 68.736 101.616C69.4198 103.579 70.0611 104.979 70.2767 104.979C70.4954 104.979 71.1291 103.547 71.8287 101.473C73.5648 96.3263 73.5608 96.3406 73.1988 96.4622C73.0239 96.5209 72.3378 98.1489 71.6746 100.08C70.531 103.409 70.2369 104.086 70.0529 103.81C70.0093 103.745 69.4377 102.081 68.7827 100.114C68.0969 98.0527 67.424 96.5006 67.1959 96.4519C66.9232 96.3935 66.4678 97.3305 65.7363 99.4567C65.1515 101.156 64.6069 102.836 64.5256 103.19C64.4442 103.544 64.2736 103.834 64.1459 103.834C64.0182 103.834 63.4439 102.385 62.87 100.615C61.7332 97.1072 61.4249 96.3935 61.0469 96.3935C60.9104 96.3935 61.4502 98.33 62.2468 100.697ZM57.3173 99.3268C57.8242 100.468 58.3048 101.563 58.3856 101.759C58.496 102.028 57.955 102.117 56.203 102.117C54.9217 102.117 53.916 102.011 53.9684 101.882C54.6012 100.313 56.0932 97.2526 56.2249 97.2523C56.319 97.2521 56.8105 98.1855 57.3173 99.3268Z" fill="#FFD60A"/>
</svg>
