<svg width="142" height="142" viewBox="0 0 142 142" fill="none" xmlns="http://www.w3.org/2000/svg">
<path d="M36.9719 12.091C47.2962 6.11803 59.0164 2.9817 70.9439 3.00008C108.469 3.00008 138.888 33.4186 138.888 70.944C138.888 108.469 108.469 138.888 70.9439 138.888C33.4185 138.888 3 108.469 3 70.944C3 58.5714 6.30887 46.9598 12.0909 36.972" stroke="white" stroke-width="6" stroke-linecap="round"/>
<path d="M90.1584 118.987C87.6377 125.299 84.6414 130.3 81.3461 133.717C78.044 137.128 74.5109 138.888 70.9439 138.888C67.3768 138.888 63.8437 137.128 60.5485 133.717C57.2464 130.3 54.2501 125.292 51.7293 118.987C49.2018 112.675 47.1975 105.194 45.8318 96.946C44.4387 88.349 43.748 79.6529 43.7663 70.9439C43.7663 62.0228 44.4661 53.1834 45.8318 44.9418C47.1975 36.7002 49.2018 29.2127 51.7293 22.9008C54.2501 16.5888 57.2464 11.5881 60.5417 8.17053C63.8437 4.76654 67.3768 3 70.9439 3C74.5109 3 78.044 4.75975 81.3393 8.17053C84.6414 11.5881 87.6377 16.5956 90.1584 22.9008C92.6859 29.2127 94.6903 36.6934 96.0491 44.9418C97.4216 53.1834 98.1214 62.0228 98.1214 70.9439C98.1214 79.8649 97.4148 88.7044 96.0491 96.946M3 70.9439H57.3551M138.888 70.9439H84.5327" stroke="white" stroke-width="6" stroke-linecap="round"/>
</svg>
