<svg width="60" height="62" viewBox="0 0 60 62" fill="none" xmlns="http://www.w3.org/2000/svg">
<path d="M49.4652 0C49.4652 0 40.1052 7.55394 33.8759 9.38476C27.6467 11.2156 24.5496 7.32595 24.5496 7.32595C24.5496 7.32595 26.4837 11.9156 21.9318 16.5751C17.3794 21.2347 6.3383 25.9622 6.3383 25.9622L6.02593 27.8162L6.87774 28.8971L0.0782902 47.0517C-0.00092363 47.1982 4.80392e-07 47.3317 4.80392e-07 47.4926C4.80392e-07 50.0077 1.08946 52.0501 2.68575 53.3487C4.28191 54.6474 6.32483 55.2533 8.35455 55.2535C10.3845 55.2539 12.431 54.6473 14.0275 53.3487C15.6239 52.0501 16.7132 50.0089 16.7132 47.4926C16.7393 47.3127 16.6879 47.1844 16.6225 47.0227L9.36941 29.1047C9.3772 28.922 9.40097 28.726 9.57418 28.3059C12.259 26.224 18.7494 21.4588 23.6089 20.0946C26.1103 19.3928 28.3059 20.1651 28.2317 21.0177L24.7019 46.1162L27.528 50.1502C25.1846 51.1817 23.225 53.4563 22.569 56.9837C15.1656 57.8083 9.96484 59.7443 9.96484 62H51.1395C51.1395 59.7445 45.9389 57.8083 38.5357 56.9837C37.8875 53.4435 35.952 51.1128 33.6261 50.0754L36.3986 46.1159L32.3406 20.2166C32.8912 17.6664 34.7312 14.5368 36.1528 12.5433C38.2955 9.56004 50.4409 3.80552 50.6303 4.01261L43.3772 21.9305C43.3119 22.0923 43.2604 22.2206 43.2865 22.4006C43.2865 24.9168 44.3759 26.9582 45.9723 28.2566C47.5687 29.5551 49.6155 30.1618 51.6454 30.1615C53.6752 30.1611 55.7178 29.5553 57.314 28.2566C58.9102 26.9579 60 24.9156 60 22.4006C60 22.2395 60.0005 22.1062 59.9214 21.9596L53.0771 3.6844C53.2052 3.03651 53.6039 2.545 54.0137 2.08277L52.4515 0.114859L49.4652 0ZM51.8765 7.52319L57.281 21.9471H46.0386L51.8765 7.52319ZM8.12325 32.6154L13.9613 47.0393H2.71875L8.12325 32.6154Z" fill="#FFC300"/>
</svg>
