<svg width="60" height="60" viewBox="0 0 60 60" fill="none" xmlns="http://www.w3.org/2000/svg">
<path d="M0.873786 54.8663L29.5519 26.2131L25.3697 21.9748L23.2188 24.0939C22.9425 24.3706 22.6142 24.5901 22.2528 24.7399C21.8914 24.8897 21.504 24.9668 21.1128 24.9668C20.7215 24.9668 20.3341 24.8897 19.9727 24.7399C19.6114 24.5901 19.2831 24.3706 19.0067 24.0939L16.8857 21.9748C16.6088 21.6986 16.3891 21.3707 16.2392 21.0096C16.0893 20.6485 16.0121 20.2615 16.0121 19.8706C16.0121 19.4797 16.0893 19.0926 16.2392 18.7315C16.3891 18.3704 16.6088 18.0425 16.8857 17.7663L33.7939 0.872861C34.0702 0.596168 34.3985 0.37665 34.7599 0.226873C35.1213 0.0770953 35.5087 0 35.8999 0C36.2912 0 36.6786 0.0770953 37.04 0.226873C37.4013 0.37665 37.7296 0.596168 38.006 0.872861L40.127 2.99201C41.292 4.15604 41.292 6.03641 40.127 7.20045L38.006 9.2599L42.2479 13.528C42.5243 13.2513 42.8526 13.0318 43.214 12.8821C43.5754 12.7323 43.9628 12.6552 44.354 12.6552C44.7452 12.6552 45.1326 12.7323 45.494 12.8821C45.8554 13.0318 46.1837 13.2513 46.46 13.528C47.6251 14.6921 47.6251 16.6023 46.46 17.7663L50.6721 21.9748L52.7931 19.8556C53.9582 18.6916 55.8701 18.6916 57.0351 19.8556L59.1262 21.9748C60.2913 23.1388 60.2913 25.049 59.1262 26.2131L42.2479 43.0767C41.0829 44.2407 39.171 44.2407 38.006 43.0767L35.9149 40.9874C35.6312 40.712 35.4057 40.3826 35.2518 40.0186C35.0978 39.6546 35.0185 39.2634 35.0185 38.8682C35.0185 38.4731 35.0978 38.0819 35.2518 37.7179C35.4057 37.3539 35.6312 37.0245 35.9149 36.7491L38.006 34.63L33.7939 30.4215L5.08589 59.1046C4.80952 59.3813 4.48125 59.6008 4.11986 59.7506C3.75848 59.9004 3.37108 59.9775 2.97984 59.9775C2.58859 59.9775 2.20119 59.9004 1.83981 59.7506C1.47842 59.6008 1.15015 59.3813 0.873786 59.1046C-0.291262 57.9406 -0.291262 56.0303 0.873786 54.8663ZM53.7491 51.0459C55.3336 51.0459 56.8533 51.6748 57.9738 52.7943C59.0942 53.9138 59.7237 55.4321 59.7237 57.0153V60H29.8506V57.0153C29.8506 55.4321 30.4801 53.9138 31.6006 52.7943C32.721 51.6748 34.2407 51.0459 35.8252 51.0459H53.7491Z" fill="#FFC300"/>
</svg>
