<svg width="60" height="62" viewBox="0 0 60 62" fill="none" xmlns="http://www.w3.org/2000/svg">
<path fill-rule="evenodd" clip-rule="evenodd" d="M27.2687 1.52554C23.353 3.32703 20.1827 7.26141 18.035 12.985C14.9437 21.2252 16.5675 27.3219 22.9396 31.3958C24.7496 32.5533 26.4532 34.0887 26.7256 34.8078C27.4815 36.8028 24.7222 38.3283 20.3584 38.3283C17.068 38.3283 16.4829 38.0908 16.4829 36.7538C16.4829 34.5809 14.3143 32.5753 12.6317 33.1916C10.1875 34.087 5.23537 37.8876 5.21765 38.881C5.20878 39.4099 6.16938 40.6139 7.3524 41.5567L9.50408 43.2716L4.49236 47.9692C1.73547 50.5535 -0.272759 52.919 0.0302491 53.2259C0.333257 53.5329 1.48807 53.0611 2.59695 52.1779C3.70502 51.2947 4.95654 50.5723 5.37801 50.5723C5.81157 50.5723 6.02674 52.8749 5.87362 55.8706C5.67699 59.7315 5.89458 61.2824 6.67708 61.5845C7.26698 61.813 19.5066 61.9999 33.8753 61.9999H60V59.6875C60 58.4149 59.7558 57.1269 59.4568 56.824C59.1587 56.522 59.0031 54.0626 59.1119 51.36C59.2973 46.7595 59.1385 46.2722 56.6331 43.7434C54.5725 41.6644 52.5642 40.7037 47.9119 39.5731C44.5877 38.765 41.2337 37.7749 40.4576 37.3717C38.2334 36.2159 38.7596 33.6234 41.5109 32.1827C45.072 30.3167 48.7178 24.1164 48.7178 19.9241C48.7178 16.1285 46.7406 10.5077 45.5894 10.7795C45.537 11.1166 45.1897 10.7795 45.5894 10.7795C45.9347 6.90226 38.1923 -5.60483e-05 32.6004 -5.60483e-05C31.4923 -5.60483e-05 29.0932 0.686421 27.2687 1.52554ZM38.3043 4.26899C45.4653 9.15677 48.4833 20.7052 44.292 27.1839C42.2128 30.3984 41.9356 29.3005 43.6166 24.5066C45.0696 20.3624 45.0672 20.3028 43.3152 17.2884C42.3433 15.6167 40.9057 12.963 40.12 11.3917C39.335 9.82039 38.6323 8.42377 38.5598 8.28908C38.4873 8.15358 36.7014 9.15187 34.5909 10.5077C32.4811 11.8627 29.0223 13.5548 26.9045 14.2674C21.3899 16.1219 20.9112 16.97 21.8371 23.2438C22.5802 28.2793 22.5519 28.4401 21.1554 27.1602C18.6741 24.8853 17.9407 20.3747 19.3003 15.7399C22.5165 4.76855 31.2836 -0.523279 38.3043 4.26899ZM38.675 12.8577C38.5122 13.0218 39.2544 14.4641 40.3246 16.0615C41.3948 17.659 42.2708 19.8474 42.2708 20.9248C42.2708 23.9556 39.36 29.0246 36.2324 31.4407C33.6931 33.403 33.1612 33.5263 31.0458 32.6382C27.4186 31.1167 24.2411 25.8836 24.1854 21.3411L24.1387 17.5471L28.7539 15.8762C31.2916 14.9571 33.8027 13.7654 34.3338 13.2275C34.8649 12.6896 36.1252 12.319 37.135 12.4039C38.1448 12.4888 38.8378 12.6928 38.675 12.8577ZM35.4201 35.8779C35.6933 36.3261 35.2823 37.7814 34.5062 39.112C33.3982 41.0114 32.859 41.333 31.9976 40.609C30.3818 39.2507 29.2318 36.7783 29.7903 35.8624C30.4285 34.8168 34.7794 34.8282 35.4201 35.8779ZM12.053 36.6917C11.7807 37.1382 10.762 37.9259 9.78936 38.4426C8.03336 39.3756 8.03175 39.3699 9.55646 37.6313C11.0949 35.8763 12.9846 35.1653 12.053 36.6917ZM15.6577 40.9445C18.6531 44.2014 15.5739 46.3865 12.4495 43.2218C11.0844 41.8391 10.9297 41.2457 11.6928 40.3143C12.9967 38.7226 13.7204 38.8377 15.6577 40.9445ZM29.8693 41.2097C32.556 45.3629 29.6767 59.5512 26.1477 59.5512C25.3596 59.5512 24.4981 58.9814 24.2338 58.2843C23.9703 57.5872 24.0646 57.2118 24.4441 57.4493C25.3507 58.0174 28.8982 45.3547 28.3623 43.4634C28.1342 42.6594 27.687 41.3591 27.367 40.5731C26.4741 38.3757 28.3446 38.8516 29.8693 41.2097ZM37.434 42.4121C36.4363 44.3009 37.0899 48.9397 38.3527 48.9397C38.3527 49.6605 38.3527 49.6605 38.7032 49.6605C38.4607 50.0564 38.9643 52.444 39.821 54.9662C41.3167 59.3708 41.3207 59.5512 39.9088 59.5512C37.8426 59.5512 36.9916 58.2533 34.9745 52.0301C33.0226 46.0077 33.258 43.3761 35.9955 40.6033C37.9739 38.5993 38.8604 39.7127 37.434 42.4121ZM25.1863 41.7566C26.6563 43.2455 26.3613 46.2624 24.0621 53.2529L21.9717 59.6124L14.9961 59.3781L8.02127 59.143L8.26384 54.6536C8.51688 49.9756 9.7676 45.6747 10.8757 45.6747C11.2294 45.6747 11.7573 46.7726 12.0482 48.1145C12.3391 49.4556 12.9081 50.7608 13.3126 51.0139C14.3482 51.662 19.1794 49.205 21.2432 46.9799C23.0887 44.9899 22.8276 42.4097 20.7814 42.4097C20.1376 42.4097 19.8354 42.0423 20.1093 41.5934C20.7976 40.4653 24.013 40.5682 25.1863 41.7566ZM49.19 41.977C51.3836 42.6366 53.8238 43.6545 54.6119 44.2389C56.1802 45.3996 58.1465 53.6406 57.7307 57.3064L57.4752 59.5512H50.4375H43.3998L41.6261 53.4463C39.8685 47.3938 39.356 42.3688 40.3907 41.3216C41.2732 40.427 44.9471 40.7004 49.19 41.977ZM17.6917 47.3072C16.8899 48.2051 15.8705 48.9397 15.4272 48.9397C14.984 48.9397 15.2781 48.2051 16.08 47.3072C16.8818 46.4093 17.9013 45.6747 18.3445 45.6747C18.7877 45.6747 18.4936 46.4093 17.6917 47.3072ZM34.5715 57.7146C35.0446 59.2785 34.8278 59.5512 33.1169 59.5512C30.7106 59.5512 30.0071 57.3473 31.7518 55.2723C33.0331 53.7484 33.4949 54.1483 34.5715 57.7146Z" fill="#FFC300"/>
</svg>
