<svg width="110" height="136" viewBox="0 0 110 136" fill="none" xmlns="http://www.w3.org/2000/svg">
<path d="M14.3124 0C10.6988 0 7.23323 1.43285 4.67805 3.98335C2.12286 6.53384 0.687378 9.99306 0.687378 13.6V122.4C0.687378 126.007 2.12286 129.466 4.67805 132.017C7.23323 134.567 10.6988 136 14.3124 136H96.0624C99.6759 136 103.142 134.567 105.697 132.017C108.252 129.466 109.687 126.007 109.687 122.4V13.6C109.687 9.99306 108.252 6.53384 105.697 3.98335C103.142 1.43285 99.6759 0 96.0624 0H14.3124ZM55.1874 20.4C64.2213 20.4 72.8852 23.9821 79.2732 30.3584C85.6612 36.7346 89.2499 45.3826 89.2499 54.4C89.2499 63.4174 85.6612 72.0654 79.2732 78.4416C72.8852 84.8179 64.2213 88.4 55.1874 88.4C46.1534 88.4 37.4895 84.8179 31.1016 78.4416C24.7136 72.0654 21.1249 63.4174 21.1249 54.4C21.1249 45.3826 24.7136 36.7346 31.1016 30.3584C37.4895 23.9821 46.1534 20.4 55.1874 20.4ZM55.1874 27.2C52.3943 31.416 50.078 35.972 48.6474 40.8H61.7274C60.2644 35.9566 58.0582 31.3689 55.1874 27.2ZM46.3311 28.696C40.0636 30.804 34.7499 35.156 31.6161 40.8H41.5624C42.7886 36.584 44.2874 32.504 46.3311 28.696ZM63.9755 28.696C66.0192 32.504 67.5861 36.584 68.8124 40.8H78.7586C75.6249 35.156 70.243 30.872 63.9755 28.696ZM28.823 47.6C28.278 49.776 27.9374 52.02 27.9374 54.4C27.9374 56.78 28.278 59.024 28.823 61.2H40.3361C40.0636 58.956 39.8593 56.712 39.8593 54.4C39.8593 52.088 40.0636 49.844 40.3361 47.6H28.823ZM47.2168 47.6C46.8761 49.776 46.6718 52.088 46.6718 54.4C46.6718 56.712 46.8761 58.956 47.2168 61.2H63.158C63.4305 58.956 63.703 56.712 63.703 54.4C63.703 52.088 63.4305 49.776 63.158 47.6H47.2168ZM70.0386 47.6C70.3111 49.844 70.5155 52.088 70.5155 54.4C70.5155 56.712 70.3111 58.956 70.0386 61.2H81.5518C82.0967 59.024 82.4374 56.78 82.4374 54.4C82.4374 52.02 82.0967 49.776 81.5518 47.6H70.0386ZM31.6161 68C34.7499 73.644 40.0636 77.928 46.3311 80.104C44.2874 76.296 42.7886 72.284 41.5624 68H31.6161ZM48.6474 68C50.078 72.896 52.3943 77.384 55.1874 81.6C58.0486 77.384 60.2968 72.896 61.7274 68H48.6474ZM68.8124 68C67.5861 72.284 66.0192 76.296 63.9755 80.104C70.243 77.928 75.6249 73.644 78.7586 68H68.8124ZM21.1249 102H89.2499V115.6H21.1249V102Z" fill="white"/>
</svg>
