<svg width="92" height="90" viewBox="0 0 92 90" fill="none" xmlns="http://www.w3.org/2000/svg">
<g id="Icons">
<g id="Vector" filter="url(#filter0_di_2_7)">
<path d="M85.3126 30.3206L84.2446 29.2526C84.9355 27.8169 85.1724 26.2047 84.9237 24.631C84.6751 23.0573 83.9526 21.5967 82.8528 20.444C82.1034 19.6958 81.2024 19.1167 80.2106 18.7457C79.2187 18.3747 78.1589 18.2204 77.1024 18.2932C76.1094 18.3493 75.1342 18.5811 74.2222 18.978V1H5V80.1111H74.2222V40.1106L81.8614 32.4714L82.5141 33.1216C82.5996 33.2066 82.6676 33.3077 82.7139 33.4191C82.7603 33.5305 82.7841 33.6499 82.7841 33.7705C82.7841 33.8912 82.7603 34.0106 82.7139 34.122C82.6676 34.2334 82.5996 34.3345 82.5141 34.4195L76.6969 40.2391C76.3258 40.6099 76.1172 41.1129 76.117 41.6375C76.1167 42.1621 76.3249 42.6653 76.6957 43.0364C77.0665 43.4075 77.5695 43.6162 78.0941 43.6164C78.6187 43.6166 79.1219 43.4085 79.493 43.0377L85.3126 37.2181C86.226 36.3027 86.7389 35.0624 86.7389 33.7693C86.7389 32.4762 86.226 31.2359 85.3126 30.3206ZM19.8333 16.3278H59.3938V20.2833H19.8333V16.3278ZM19.8333 26.2167H59.3938V30.1722H19.8333V26.2167ZM19.8333 36.1056H45.7917V40.0611H19.8333V36.1056ZM56.4024 69.9651H37.1092C34.8793 69.9651 32.7927 69.755 31.6852 67.928C30.5504 66.0615 31.6777 63.8933 32.501 62.3062C32.6469 62.0268 32.323 61.6807 31.9522 62.0639C30.8644 63.1813 29.1338 65.1937 27.742 66.8106C26.271 68.5213 25.6876 69.1913 25.3761 69.4731C25.0465 69.856 24.5989 70.1182 24.1038 70.2185C23.6087 70.3187 23.0943 70.2514 22.6418 70.0269C22.2358 69.792 21.9177 69.4307 21.7361 68.9982C21.5544 68.5658 21.5191 68.0857 21.6356 67.6313C21.7394 67.0133 23.5046 60.1356 25.1041 53.9525C22.978 57.7276 16.2288 69.0331 15.9124 69.5646C15.677 69.959 15.2946 70.2437 14.8493 70.3562C14.4039 70.4686 13.9322 70.3995 13.5378 70.1641C13.1434 69.9287 12.8587 69.5463 12.7463 69.101C12.6338 68.6557 12.7029 68.1839 12.9383 67.7896C13.0248 67.6486 21.4798 53.4803 22.5454 51.4234C22.8927 50.6013 23.5392 49.9416 24.3542 49.5776C25.1692 49.2137 26.092 49.1728 26.936 49.463C27.6979 49.7727 28.3141 50.3596 28.6605 51.1055C29.0068 51.8515 29.0576 52.7009 28.8026 53.4828C27.9126 56.9143 27.0053 60.4347 26.3056 63.1739C27.4354 61.8686 28.6171 60.5286 29.4701 59.651C30.1267 58.8622 31.0236 58.3102 32.0237 58.0794C33.0238 57.8486 34.0719 57.9516 35.0078 58.3729C35.5902 58.6679 36.0568 59.1499 36.3329 59.7415C36.609 60.3331 36.6787 61.0003 36.5307 61.6362C36.2938 62.4235 35.9722 63.1828 35.5715 63.9008C34.9114 65.2728 35.2254 66.5015 37.1092 66.5015H56.4C56.8589 66.5015 57.2991 66.6839 57.6237 67.0084C57.9482 67.3329 58.1305 67.7731 58.1305 68.2321C58.1305 68.6911 57.9482 69.1312 57.6237 69.4558C57.2991 69.7803 56.8589 69.9626 56.4 69.9626L56.4024 69.9651ZM51.2578 57.4804L44.8201 59.1788C44.7264 59.2048 44.6274 59.2052 44.5335 59.18C44.4396 59.1548 44.3541 59.1049 44.2861 59.0354C44.2162 58.9676 44.1658 58.8823 44.1401 58.7884C44.1145 58.6944 44.1145 58.5953 44.1402 58.5014L45.7818 52.0761L62.0737 35.7842L67.5126 41.2231L51.2578 57.4804ZM79.6042 29.1314L70.3087 38.427L64.8698 32.9881L74.1654 23.6925C74.9968 22.838 76.1154 22.3218 77.3051 22.2438L77.5276 22.2364C77.9945 22.2276 78.4584 22.3121 78.8923 22.4849C79.3261 22.6577 79.7211 22.9153 80.0542 23.2426C80.7687 24.0861 81.1222 25.1771 81.038 26.2794C80.9538 27.3816 80.4386 28.4063 79.6042 29.1314Z" fill="white"/>
<path d="M55.1927 69.4651L55.1902 69.4626H56.4C56.7263 69.4626 57.0393 69.333 57.2701 69.1022C57.5009 68.8715 57.6305 68.5584 57.6305 68.2321C57.6305 67.9057 57.5009 67.5927 57.2701 67.362C57.0393 67.1312 56.7263 67.0015 56.4 67.0015H37.1092C36.0712 67.0015 35.286 66.6567 34.9363 65.9333C34.6069 65.2523 34.7644 64.4252 35.1209 63.684L35.1275 63.6703L35.1349 63.6571C35.5153 62.9755 35.8211 62.255 36.0472 61.5079C36.1652 60.9855 36.1064 60.4385 35.8798 59.9529C35.6527 59.4661 35.2698 59.069 34.7919 58.824C33.9583 58.4517 33.0259 58.3612 32.1362 58.5666C31.2425 58.7728 30.4411 59.2661 29.8543 59.9709L29.842 59.9857L29.8286 59.9995C28.9871 60.8654 27.8141 62.1951 26.6837 63.5011L25.8212 63.0502C26.521 60.3102 27.4285 56.7891 28.3186 53.3573L28.3224 53.3424L28.3272 53.3278C28.543 52.6661 28.5001 51.9473 28.207 51.3161C27.9158 50.689 27.3993 50.1948 26.7604 49.9314C26.0397 49.6872 25.2532 49.7238 24.5581 50.0342C23.8587 50.3465 23.304 50.9125 23.0059 51.618L22.9983 51.6361L22.9893 51.6534C21.9207 53.7164 13.5561 67.7338 13.367 68.0469C13.2001 68.3272 13.1512 68.6623 13.2311 68.9786C13.311 69.2954 13.5136 69.5674 13.7941 69.7348C14.0746 69.9022 14.4101 69.9513 14.7269 69.8714C15.0434 69.7915 15.3153 69.5891 15.4828 69.3088C15.5018 69.2769 15.5437 69.2065 15.6062 69.1018C16.5904 67.4513 22.6729 57.2505 24.6685 53.7072L25.5882 54.0778C24.7885 57.1691 23.9475 60.4335 23.2935 63.0022C22.6346 65.5903 22.1761 67.4321 22.1287 67.7142L22.1252 67.735L22.1199 67.7555C22.0305 68.1042 22.0576 68.4727 22.197 68.8046C22.3344 69.1317 22.5734 69.4056 22.8785 69.5861C23.228 69.7555 23.6236 69.8056 24.0045 69.7284C24.3908 69.6502 24.74 69.4456 24.9971 69.1469L25.0175 69.1233L25.0406 69.1024C25.3219 68.8478 25.8764 68.2134 27.3628 66.4846L27.363 66.4844L27.4303 66.4063C28.8057 64.8084 30.5104 62.8282 31.5939 61.7151M55.1927 69.4651L31.9522 62.0639M55.1927 69.4651H37.1092C34.8521 69.4651 33.0596 69.2307 32.1127 67.6688L32.1124 67.6683C31.6376 66.8873 31.6207 66.0286 31.844 65.1333C32.0702 64.2265 32.5282 63.3397 32.9445 62.537M55.1927 69.4651L55.6942 69.9651H37.1092C34.8793 69.9651 32.7927 69.755 31.6852 67.928L32.501 62.3062M31.5939 61.7151L31.9522 62.0639M31.5939 61.7151C31.5935 61.7155 31.5932 61.7158 31.5929 61.7162L31.9522 62.0639M31.5939 61.7151C31.8803 61.4199 32.3191 61.2653 32.6999 61.522C33.0305 61.7449 33.1288 62.1835 32.9445 62.537M31.9522 62.0639C32.323 61.6807 32.6469 62.0268 32.501 62.3062M32.9445 62.537C32.9446 62.5368 32.9447 62.5366 32.9448 62.5364L32.501 62.3062M32.9445 62.537C32.9444 62.5372 32.9443 62.5374 32.9442 62.5376L32.501 62.3062M85.6666 29.9674L85.6662 29.967L84.8432 29.1441C85.4631 27.7008 85.6635 26.1092 85.4176 24.553C85.1531 22.8788 84.3846 21.3251 83.2145 20.0989L83.2146 20.0988L83.206 20.0902C82.4062 19.2915 81.4445 18.6734 80.3857 18.2773C79.3279 17.8817 78.1977 17.717 77.071 17.7942C76.27 17.8397 75.48 17.9932 74.7222 18.2495V1V0.5H74.2222H5H4.5V1V80.1111V80.6111H5H74.2222H74.7222V80.1111V40.3177L81.8621 33.1778L82.1612 33.4758L82.1617 33.4763C82.2005 33.5149 82.2313 33.5607 82.2523 33.6112L82.7139 33.4191L82.2523 33.6112C82.2733 33.6617 82.2841 33.7159 82.2841 33.7705C82.2841 33.8252 82.2733 33.8794 82.2523 33.9299L82.7139 34.122L82.2523 33.9299C82.2313 33.9804 82.2005 34.0262 82.1617 34.0648L82.1604 34.066L76.3435 39.8854C76.3435 39.8854 76.3435 39.8855 76.3434 39.8855C75.8786 40.35 75.6172 40.9801 75.617 41.6373C75.6167 42.2945 75.8775 42.9249 76.342 43.3898C76.8065 43.8548 77.4367 44.1161 78.0939 44.1164C78.7511 44.1167 79.3815 43.8559 79.8464 43.3914L79.8466 43.3912L85.6662 37.5716L85.6666 37.5712C86.6734 36.5621 87.2389 35.1948 87.2389 33.7693C87.2389 32.3438 86.6734 30.9765 85.6666 29.9674ZM62.0737 36.4913L66.8055 41.2231L50.9996 57.0314L44.6925 58.6954L44.6925 58.6953L44.6863 58.697C44.6787 58.6991 44.6708 58.6992 44.6632 58.6971C44.6611 58.6966 44.6591 58.6959 44.6571 58.695C44.6519 58.6928 44.6472 58.6895 44.6432 58.6855L44.6433 58.6854L44.6342 58.6765C44.6286 58.6711 44.6245 58.6642 44.6225 58.6566C44.6204 58.649 44.6204 58.641 44.6225 58.6335L44.6225 58.6335L44.6247 58.6252L46.2323 52.3327L62.0737 36.4913ZM79.2763 28.754L79.2631 28.7655L79.2507 28.7779L70.3087 37.7199L65.5769 32.9881L74.5189 24.0461L74.5237 24.0412C75.2671 23.2772 76.2666 22.8149 77.33 22.7433L77.537 22.7363C77.5381 22.7363 77.5393 22.7363 77.5405 22.7362C77.9397 22.7292 78.3363 22.8017 78.7073 22.9494C79.0723 23.0948 79.4053 23.3102 79.6875 23.5834C80.3071 24.324 80.613 25.2778 80.5394 26.2413C80.4652 27.2124 80.0114 28.1152 79.2763 28.754ZM20.3333 16.8278H58.8938V19.7833H20.3333V16.8278ZM20.3333 26.7167H58.8938V29.6722H20.3333V26.7167ZM20.3333 36.6056H45.2917V39.5611H20.3333V36.6056Z" stroke="black"/>
</g>
</g>
<defs>
<filter id="filter0_di_2_7" x="0" y="0" width="91.7389" height="89.1111" filterUnits="userSpaceOnUse" color-interpolation-filters="sRGB">
<feFlood flood-opacity="0" result="BackgroundImageFix"/>
<feColorMatrix in="SourceAlpha" type="matrix" values="0 0 0 0 0 0 0 0 0 0 0 0 0 0 0 0 0 0 127 0" result="hardAlpha"/>
<feOffset dy="4"/>
<feGaussianBlur stdDeviation="2"/>
<feComposite in2="hardAlpha" operator="out"/>
<feColorMatrix type="matrix" values="0 0 0 0 0 0 0 0 0 0 0 0 0 0 0 0 0 0 0.25 0"/>
<feBlend mode="normal" in2="BackgroundImageFix" result="effect1_dropShadow_2_7"/>
<feBlend mode="normal" in="SourceGraphic" in2="effect1_dropShadow_2_7" result="shape"/>
<feColorMatrix in="SourceAlpha" type="matrix" values="0 0 0 0 0 0 0 0 0 0 0 0 0 0 0 0 0 0 127 0" result="hardAlpha"/>
<feOffset dy="4"/>
<feGaussianBlur stdDeviation="2"/>
<feComposite in2="hardAlpha" operator="arithmetic" k2="-1" k3="1"/>
<feColorMatrix type="matrix" values="0 0 0 0 0 0 0 0 0 0 0 0 0 0 0 0 0 0 0.25 0"/>
<feBlend mode="normal" in2="shape" result="effect2_innerShadow_2_7"/>
</filter>
</defs>
</svg>
